<svg id="visual" viewBox="0 0 900 600" width="900" height="600" xmlns="http://www.w3.org/2000/svg" xmlns:xlink="http://www.w3.org/1999/xlink" version="1.1"><rect x="0" y="0" width="900" height="600" fill="#192a40"></rect><path d="M0 425L16.7 418C33.3 411 66.7 397 100 389.2C133.3 381.3 166.7 379.7 200 394C233.3 408.3 266.7 438.7 300 449.2C333.3 459.7 366.7 450.3 400 442.7C433.3 435 466.7 429 500 431.8C533.3 434.7 566.7 446.3 600 449.2C633.3 452 666.7 446 700 437.5C733.3 429 766.7 418 800 416C833.3 414 866.7 421 883.3 424.5L900 428L900 601L883.3 601C866.7 601 833.3 601 800 601C766.7 601 733.3 601 700 601C666.7 601 633.3 601 600 601C566.7 601 533.3 601 500 601C466.7 601 433.3 601 400 601C366.7 601 333.3 601 300 601C266.7 601 233.3 601 200 601C166.7 601 133.3 601 100 601C66.7 601 33.3 601 16.7 601L0 601Z" fill="#d86868"></path><path d="M0 478L16.7 475C33.3 472 66.7 466 100 469.3C133.3 472.7 166.7 485.3 200 477.3C233.3 469.3 266.7 440.7 300 433.5C333.3 426.3 366.7 440.7 400 449.2C433.3 457.7 466.7 460.3 500 460.7C533.3 461 566.7 459 600 453.8C633.3 448.7 666.7 440.3 700 439.7C733.3 439 766.7 446 800 451.5C833.3 457 866.7 461 883.3 463L900 465L900 601L883.3 601C866.7 601 833.3 601 800 601C766.7 601 733.3 601 700 601C666.7 601 633.3 601 600 601C566.7 601 533.3 601 500 601C466.7 601 433.3 601 400 601C366.7 601 333.3 601 300 601C266.7 601 233.3 601 200 601C166.7 601 133.3 601 100 601C66.7 601 33.3 601 16.7 601L0 601Z" fill="#e38c88"></path><path d="M0 445L16.7 454C33.3 463 66.7 481 100 484.3C133.3 487.7 166.7 476.3 200 475.7C233.3 475 266.7 485 300 482.5C333.3 480 366.7 465 400 467.3C433.3 469.7 466.7 489.3 500 493.5C533.3 497.7 566.7 486.3 600 483.2C633.3 480 666.7 485 700 483.2C733.3 481.3 766.7 472.7 800 479.7C833.3 486.7 866.7 509.3 883.3 520.7L900 532L900 601L883.3 601C866.7 601 833.3 601 800 601C766.7 601 733.3 601 700 601C666.7 601 633.3 601 600 601C566.7 601 533.3 601 500 601C466.7 601 433.3 601 400 601C366.7 601 333.3 601 300 601C266.7 601 233.3 601 200 601C166.7 601 133.3 601 100 601C66.7 601 33.3 601 16.7 601L0 601Z" fill="#ebaeaa"></path><path d="M0 532L16.7 535.2C33.3 538.3 66.7 544.7 100 536.8C133.3 529 166.7 507 200 498.3C233.3 489.7 266.7 494.3 300 507.7C333.3 521 366.7 543 400 548.5C433.3 554 466.7 543 500 529.5C533.3 516 566.7 500 600 499.8C633.3 499.7 666.7 515.3 700 528.8C733.3 542.3 766.7 553.7 800 548.2C833.3 542.7 866.7 520.3 883.3 509.2L900 498L900 601L883.3 601C866.7 601 833.3 601 800 601C766.7 601 733.3 601 700 601C666.7 601 633.3 601 600 601C566.7 601 533.3 601 500 601C466.7 601 433.3 601 400 601C366.7 601 333.3 601 300 601C266.7 601 233.3 601 200 601C166.7 601 133.3 601 100 601C66.7 601 33.3 601 16.7 601L0 601Z" fill="#f0d0cd"></path><path d="M0 562L16.7 563.7C33.3 565.3 66.7 568.7 100 567.2C133.3 565.7 166.7 559.3 200 562.7C233.3 566 266.7 579 300 585.3C333.3 591.7 366.7 591.3 400 585.5C433.3 579.7 466.7 568.3 500 560.3C533.3 552.3 566.7 547.7 600 550.2C633.3 552.7 666.7 562.3 700 564C733.3 565.7 766.7 559.3 800 556.3C833.3 553.3 866.7 553.7 883.3 553.8L900 554L900 601L883.3 601C866.7 601 833.3 601 800 601C766.7 601 733.3 601 700 601C666.7 601 633.3 601 600 601C566.7 601 533.3 601 500 601C466.7 601 433.3 601 400 601C366.7 601 333.3 601 300 601C266.7 601 233.3 601 200 601C166.7 601 133.3 601 100 601C66.7 601 33.3 601 16.7 601L0 601Z" fill="#f2f2f2"></path></svg>